<svg id="visual" viewBox="0 0 900 600" width="900" height="600" xmlns="http://www.w3.org/2000/svg" xmlns:xlink="http://www.w3.org/1999/xlink" version="1.1"><rect x="0" y="0" width="900" height="600" fill="#002233"></rect><path d="M0 398L21.5 397.2C43 396.3 86 394.7 128.8 401.7C171.7 408.7 214.3 424.3 257.2 425.3C300 426.3 343 412.7 385.8 421C428.7 429.3 471.3 459.7 514.2 458C557 456.3 600 422.7 642.8 413.2C685.7 403.7 728.3 418.3 771.2 427.8C814 437.3 857 441.7 878.5 443.8L900 446L900 601L878.5 601C857 601 814 601 771.2 601C728.3 601 685.7 601 642.8 601C600 601 557 601 514.2 601C471.3 601 428.7 601 385.8 601C343 601 300 601 257.2 601C214.3 601 171.7 601 128.8 601C86 601 43 601 21.5 601L0 601Z" fill="#0066FF" stroke-linecap="round" stroke-linejoin="miter"></path></svg>